<mxfile host="Electron" agent="Mozilla/5.0 (X11; Linux x86_64) AppleWebKit/537.36 (KHTML, like Gecko) draw.io/24.7.17 Chrome/128.0.6613.186 Electron/32.2.4 Safari/537.36" version="24.7.17">
  <diagram name="PÃ¡gina-1" id="o93FBsn6nECMD2D6n4Bw">
    <mxGraphModel dx="718" dy="438" grid="1" gridSize="10" guides="1" tooltips="1" connect="1" arrows="1" fold="1" page="1" pageScale="1" pageWidth="827" pageHeight="1169" math="0" shadow="0">
      <root>
        <mxCell id="0" />
        <mxCell id="1" parent="0" />
        <mxCell id="_rcM5Q3jTv8Pyv9toApQ-25" value="" style="endArrow=none;dashed=1;html=1;rounded=0;" edge="1" parent="1">
          <mxGeometry width="50" height="50" relative="1" as="geometry">
            <mxPoint x="120" y="424.79999999999995" as="sourcePoint" />
            <mxPoint x="520" y="424.79999999999995" as="targetPoint" />
          </mxGeometry>
        </mxCell>
        <mxCell id="_rcM5Q3jTv8Pyv9toApQ-24" value="" style="endArrow=none;dashed=1;html=1;rounded=0;" edge="1" parent="1">
          <mxGeometry width="50" height="50" relative="1" as="geometry">
            <mxPoint x="120" y="414.79999999999995" as="sourcePoint" />
            <mxPoint x="520" y="414.79999999999995" as="targetPoint" />
          </mxGeometry>
        </mxCell>
        <mxCell id="_rcM5Q3jTv8Pyv9toApQ-23" value="" style="endArrow=none;dashed=1;html=1;rounded=0;" edge="1" parent="1">
          <mxGeometry width="50" height="50" relative="1" as="geometry">
            <mxPoint x="120" y="404.65999999999997" as="sourcePoint" />
            <mxPoint x="520" y="404.65999999999997" as="targetPoint" />
          </mxGeometry>
        </mxCell>
        <mxCell id="_rcM5Q3jTv8Pyv9toApQ-22" value="" style="endArrow=none;dashed=1;html=1;rounded=0;" edge="1" parent="1">
          <mxGeometry width="50" height="50" relative="1" as="geometry">
            <mxPoint x="120" y="394.65999999999997" as="sourcePoint" />
            <mxPoint x="520" y="394.65999999999997" as="targetPoint" />
          </mxGeometry>
        </mxCell>
        <mxCell id="_rcM5Q3jTv8Pyv9toApQ-21" value="" style="endArrow=none;dashed=1;html=1;rounded=0;" edge="1" parent="1">
          <mxGeometry width="50" height="50" relative="1" as="geometry">
            <mxPoint x="120" y="314.65999999999997" as="sourcePoint" />
            <mxPoint x="520" y="314.65999999999997" as="targetPoint" />
          </mxGeometry>
        </mxCell>
        <mxCell id="_rcM5Q3jTv8Pyv9toApQ-20" value="" style="endArrow=none;dashed=1;html=1;rounded=0;" edge="1" parent="1">
          <mxGeometry width="50" height="50" relative="1" as="geometry">
            <mxPoint x="120" y="214.66" as="sourcePoint" />
            <mxPoint x="520" y="214.66" as="targetPoint" />
          </mxGeometry>
        </mxCell>
        <mxCell id="_rcM5Q3jTv8Pyv9toApQ-19" value="" style="endArrow=none;dashed=1;html=1;rounded=0;" edge="1" parent="1">
          <mxGeometry width="50" height="50" relative="1" as="geometry">
            <mxPoint x="120" y="194.66" as="sourcePoint" />
            <mxPoint x="520" y="194.66" as="targetPoint" />
          </mxGeometry>
        </mxCell>
        <mxCell id="_rcM5Q3jTv8Pyv9toApQ-18" value="" style="endArrow=none;dashed=1;html=1;rounded=0;" edge="1" parent="1">
          <mxGeometry width="50" height="50" relative="1" as="geometry">
            <mxPoint x="120" y="124.58" as="sourcePoint" />
            <mxPoint x="520" y="124.58" as="targetPoint" />
          </mxGeometry>
        </mxCell>
        <mxCell id="_rcM5Q3jTv8Pyv9toApQ-1" value="" style="ellipse;whiteSpace=wrap;html=1;aspect=fixed;fillColor=#dae8fc;strokeColor=#6c8ebf;" vertex="1" parent="1">
          <mxGeometry x="320" y="120" width="10" height="10" as="geometry" />
        </mxCell>
        <mxCell id="_rcM5Q3jTv8Pyv9toApQ-2" value="" style="ellipse;whiteSpace=wrap;html=1;aspect=fixed;fillColor=#ffe6cc;strokeColor=#d79b00;" vertex="1" parent="1">
          <mxGeometry x="240" y="190" width="10" height="10" as="geometry" />
        </mxCell>
        <mxCell id="_rcM5Q3jTv8Pyv9toApQ-3" value="" style="ellipse;whiteSpace=wrap;html=1;aspect=fixed;fillColor=#f8cecc;strokeColor=#b85450;" vertex="1" parent="1">
          <mxGeometry x="270" y="390" width="10" height="10" as="geometry" />
        </mxCell>
        <mxCell id="_rcM5Q3jTv8Pyv9toApQ-4" value="" style="ellipse;whiteSpace=wrap;html=1;aspect=fixed;fillColor=#d5e8d4;strokeColor=#82b366;" vertex="1" parent="1">
          <mxGeometry x="390" y="210" width="10" height="10" as="geometry" />
        </mxCell>
        <mxCell id="_rcM5Q3jTv8Pyv9toApQ-5" value="" style="ellipse;whiteSpace=wrap;html=1;aspect=fixed;fillColor=#e1d5e7;strokeColor=#9673a6;" vertex="1" parent="1">
          <mxGeometry x="160" y="310" width="10" height="10" as="geometry" />
        </mxCell>
        <mxCell id="_rcM5Q3jTv8Pyv9toApQ-6" value="" style="ellipse;whiteSpace=wrap;html=1;aspect=fixed;fillColor=#f8cecc;strokeColor=#b85450;" vertex="1" parent="1">
          <mxGeometry x="430" y="400" width="10" height="10" as="geometry" />
        </mxCell>
        <mxCell id="_rcM5Q3jTv8Pyv9toApQ-7" value="" style="ellipse;whiteSpace=wrap;html=1;aspect=fixed;fillColor=#f8cecc;strokeColor=#b85450;" vertex="1" parent="1">
          <mxGeometry x="320" y="390" width="10" height="10" as="geometry" />
        </mxCell>
        <mxCell id="_rcM5Q3jTv8Pyv9toApQ-8" value="" style="ellipse;whiteSpace=wrap;html=1;aspect=fixed;fillColor=#f8cecc;strokeColor=#b85450;" vertex="1" parent="1">
          <mxGeometry x="140" y="410" width="10" height="10" as="geometry" />
        </mxCell>
        <mxCell id="_rcM5Q3jTv8Pyv9toApQ-9" value="" style="ellipse;whiteSpace=wrap;html=1;aspect=fixed;fillColor=#f8cecc;strokeColor=#b85450;" vertex="1" parent="1">
          <mxGeometry x="180" y="420" width="10" height="10" as="geometry" />
        </mxCell>
        <mxCell id="_rcM5Q3jTv8Pyv9toApQ-10" value="" style="endArrow=none;html=1;rounded=0;entryX=0;entryY=1;entryDx=0;entryDy=0;exitX=1;exitY=0;exitDx=0;exitDy=0;fillColor=#dae8fc;strokeColor=#0000FF;" edge="1" parent="1" source="_rcM5Q3jTv8Pyv9toApQ-2" target="_rcM5Q3jTv8Pyv9toApQ-1">
          <mxGeometry width="50" height="50" relative="1" as="geometry">
            <mxPoint x="340" y="330" as="sourcePoint" />
            <mxPoint x="390" y="280" as="targetPoint" />
          </mxGeometry>
        </mxCell>
        <mxCell id="_rcM5Q3jTv8Pyv9toApQ-11" value="" style="endArrow=none;html=1;rounded=0;entryX=1;entryY=1;entryDx=0;entryDy=0;exitX=0;exitY=0;exitDx=0;exitDy=0;fillColor=#dae8fc;strokeColor=#0000FF;" edge="1" parent="1" source="_rcM5Q3jTv8Pyv9toApQ-4" target="_rcM5Q3jTv8Pyv9toApQ-1">
          <mxGeometry width="50" height="50" relative="1" as="geometry">
            <mxPoint x="259" y="201" as="sourcePoint" />
            <mxPoint x="331" y="139" as="targetPoint" />
          </mxGeometry>
        </mxCell>
        <mxCell id="_rcM5Q3jTv8Pyv9toApQ-12" value="" style="endArrow=none;html=1;rounded=0;entryX=0.5;entryY=0;entryDx=0;entryDy=0;exitX=0;exitY=1;exitDx=0;exitDy=0;fillColor=#dae8fc;strokeColor=#0000FF;" edge="1" parent="1" source="_rcM5Q3jTv8Pyv9toApQ-4" target="_rcM5Q3jTv8Pyv9toApQ-7">
          <mxGeometry width="50" height="50" relative="1" as="geometry">
            <mxPoint x="391" y="199" as="sourcePoint" />
            <mxPoint x="339" y="139" as="targetPoint" />
          </mxGeometry>
        </mxCell>
        <mxCell id="_rcM5Q3jTv8Pyv9toApQ-13" value="" style="endArrow=none;html=1;rounded=0;entryX=0.5;entryY=0;entryDx=0;entryDy=0;exitX=1;exitY=1;exitDx=0;exitDy=0;fillColor=#dae8fc;strokeColor=#0000FF;" edge="1" parent="1" source="_rcM5Q3jTv8Pyv9toApQ-4" target="_rcM5Q3jTv8Pyv9toApQ-6">
          <mxGeometry width="50" height="50" relative="1" as="geometry">
            <mxPoint x="401" y="209" as="sourcePoint" />
            <mxPoint x="335" y="400" as="targetPoint" />
          </mxGeometry>
        </mxCell>
        <mxCell id="_rcM5Q3jTv8Pyv9toApQ-14" value="" style="endArrow=none;html=1;rounded=0;entryX=0.5;entryY=0;entryDx=0;entryDy=0;exitX=1;exitY=1;exitDx=0;exitDy=0;fillColor=#dae8fc;strokeColor=#0000FF;" edge="1" parent="1" source="_rcM5Q3jTv8Pyv9toApQ-2" target="_rcM5Q3jTv8Pyv9toApQ-3">
          <mxGeometry width="50" height="50" relative="1" as="geometry">
            <mxPoint x="401" y="209" as="sourcePoint" />
            <mxPoint x="335" y="400" as="targetPoint" />
          </mxGeometry>
        </mxCell>
        <mxCell id="_rcM5Q3jTv8Pyv9toApQ-15" value="" style="endArrow=none;html=1;rounded=0;entryX=0.5;entryY=0;entryDx=0;entryDy=0;exitX=0;exitY=1;exitDx=0;exitDy=0;fillColor=#dae8fc;strokeColor=#0000FF;" edge="1" parent="1" source="_rcM5Q3jTv8Pyv9toApQ-2" target="_rcM5Q3jTv8Pyv9toApQ-5">
          <mxGeometry width="50" height="50" relative="1" as="geometry">
            <mxPoint x="401" y="209" as="sourcePoint" />
            <mxPoint x="335" y="400" as="targetPoint" />
          </mxGeometry>
        </mxCell>
        <mxCell id="_rcM5Q3jTv8Pyv9toApQ-16" value="" style="endArrow=none;html=1;rounded=0;entryX=0.5;entryY=0;entryDx=0;entryDy=0;exitX=0;exitY=1;exitDx=0;exitDy=0;fillColor=#dae8fc;strokeColor=#0000FF;" edge="1" parent="1" source="_rcM5Q3jTv8Pyv9toApQ-5" target="_rcM5Q3jTv8Pyv9toApQ-8">
          <mxGeometry width="50" height="50" relative="1" as="geometry">
            <mxPoint x="251" y="209" as="sourcePoint" />
            <mxPoint x="175" y="320" as="targetPoint" />
          </mxGeometry>
        </mxCell>
        <mxCell id="_rcM5Q3jTv8Pyv9toApQ-17" value="" style="endArrow=none;html=1;rounded=0;entryX=0.5;entryY=0;entryDx=0;entryDy=0;exitX=1;exitY=1;exitDx=0;exitDy=0;fillColor=#dae8fc;strokeColor=#0000FF;" edge="1" parent="1" source="_rcM5Q3jTv8Pyv9toApQ-5" target="_rcM5Q3jTv8Pyv9toApQ-9">
          <mxGeometry width="50" height="50" relative="1" as="geometry">
            <mxPoint x="171" y="329" as="sourcePoint" />
            <mxPoint x="155" y="440" as="targetPoint" />
          </mxGeometry>
        </mxCell>
        <mxCell id="_rcM5Q3jTv8Pyv9toApQ-26" value="0" style="text;html=1;align=center;verticalAlign=middle;whiteSpace=wrap;rounded=0;fontSize=10;" vertex="1" parent="1">
          <mxGeometry x="520" y="110" width="30" height="30" as="geometry" />
        </mxCell>
        <mxCell id="_rcM5Q3jTv8Pyv9toApQ-27" value="7" style="text;html=1;align=center;verticalAlign=middle;whiteSpace=wrap;rounded=0;fontSize=10;" vertex="1" parent="1">
          <mxGeometry x="520" y="180" width="30" height="30" as="geometry" />
        </mxCell>
        <mxCell id="_rcM5Q3jTv8Pyv9toApQ-28" value="9" style="text;html=1;align=center;verticalAlign=middle;whiteSpace=wrap;rounded=0;fontSize=10;" vertex="1" parent="1">
          <mxGeometry x="520" y="200" width="30" height="30" as="geometry" />
        </mxCell>
        <mxCell id="_rcM5Q3jTv8Pyv9toApQ-29" value="12" style="text;html=1;align=center;verticalAlign=middle;whiteSpace=wrap;rounded=0;fontSize=10;" vertex="1" parent="1">
          <mxGeometry x="520" y="300" width="30" height="30" as="geometry" />
        </mxCell>
        <mxCell id="_rcM5Q3jTv8Pyv9toApQ-30" value="17" style="text;html=1;align=center;verticalAlign=middle;whiteSpace=wrap;rounded=0;fontSize=10;" vertex="1" parent="1">
          <mxGeometry x="520" y="380" width="30" height="30" as="geometry" />
        </mxCell>
        <mxCell id="_rcM5Q3jTv8Pyv9toApQ-31" value="18" style="text;html=1;align=center;verticalAlign=middle;whiteSpace=wrap;rounded=0;fontSize=10;" vertex="1" parent="1">
          <mxGeometry x="520" y="390" width="30" height="30" as="geometry" />
        </mxCell>
        <mxCell id="_rcM5Q3jTv8Pyv9toApQ-32" value="19" style="text;html=1;align=center;verticalAlign=middle;whiteSpace=wrap;rounded=0;fontSize=10;" vertex="1" parent="1">
          <mxGeometry x="520" y="400" width="30" height="30" as="geometry" />
        </mxCell>
        <mxCell id="_rcM5Q3jTv8Pyv9toApQ-33" value="20" style="text;html=1;align=center;verticalAlign=middle;whiteSpace=wrap;rounded=0;fontSize=10;" vertex="1" parent="1">
          <mxGeometry x="520" y="410" width="30" height="30" as="geometry" />
        </mxCell>
      </root>
    </mxGraphModel>
  </diagram>
</mxfile>
